HIERARCHY
ROOT joint_0
{
	OFFSET 0.000000 0.000000 0.000000
	CHANNELS 6 Xposition Yposition Zposition Zrotation Yrotation Xrotation 
	JOINT joint_1
	{
		OFFSET 14.113007 -2.961990 123.953979
		CHANNELS 3 Zrotation Yrotation Xrotation
		JOINT joint_2
		{
			OFFSET 0.764000 -2.434006 113.871948
			CHANNELS 3 Zrotation Yrotation Xrotation
			JOINT joint_3
			{
				OFFSET 0.186996 -2.169998 113.753052
				CHANNELS 3 Zrotation Yrotation Xrotation
				JOINT joint_4
				{
					OFFSET 16.096001 -2.720001 160.853027
					CHANNELS 3 Zrotation Yrotation Xrotation
					JOINT joint_5
					{
						OFFSET 34.392006 -0.188995 92.567017
						CHANNELS 3 Zrotation Yrotation Xrotation
						End Site
						{
							OFFSET 0.000000 0.000000 0.000000
						}
					}
				}
				JOINT joint_6
				{
					OFFSET 9.183998 -36.684006 89.597046
					CHANNELS 3 Zrotation Yrotation Xrotation
					JOINT joint_7
					{
						OFFSET 0.486000 -164.365997 -28.984009
						CHANNELS 3 Zrotation Yrotation Xrotation
						JOINT joint_8
						{
							OFFSET 38.899002 -34.967010 -291.651978
							CHANNELS 3 Zrotation Yrotation Xrotation
							JOINT joint_9
							{
								OFFSET 41.714005 -45.890991 -258.857056
								CHANNELS 3 Zrotation Yrotation Xrotation
								End Site
								{
									OFFSET 0.000000 0.000000 0.000000
								}
							}
						}
					}
				}
				JOINT joint_10
				{
					OFFSET 8.867004 33.650002 90.817993
					CHANNELS 3 Zrotation Yrotation Xrotation
					JOINT joint_11
					{
						OFFSET 0.018997 164.299999 -29.368042
						CHANNELS 3 Zrotation Yrotation Xrotation
						JOINT joint_12
						{
							OFFSET 29.440994 30.887997 -293.216919
							CHANNELS 3 Zrotation Yrotation Xrotation
							JOINT joint_13
							{
								OFFSET 46.174011 54.490005 -256.422058
								CHANNELS 3 Zrotation Yrotation Xrotation
								End Site
								{
									OFFSET 0.000000 0.000000 0.000000
								}
							}
						}
					}
				}
			}
		}
	}
	JOINT joint_14
	{
		OFFSET -2.264000 -89.466995 -116.150024
		CHANNELS 3 Zrotation Yrotation Xrotation
		JOINT joint_15
		{
			OFFSET -16.400993 -17.452988 -493.781982
			CHANNELS 3 Zrotation Yrotation Xrotation
			JOINT joint_16
			{
				OFFSET -50.497004 -13.404022 -424.754013
				CHANNELS 3 Zrotation Yrotation Xrotation
				JOINT joint_17
				{
					OFFSET 198.546007 -19.341003 -89.309000
					CHANNELS 3 Zrotation Yrotation Xrotation
					End Site
					{
						OFFSET 0.000000 0.000000 0.000000
					}
				}
			}
		}
	}
	JOINT joint_18
	{
		OFFSET -0.867996 96.016006 -110.817993
		CHANNELS 3 Zrotation Yrotation Xrotation
		JOINT joint_19
		{
			OFFSET -10.130997 24.658998 -493.645020
			CHANNELS 3 Zrotation Yrotation Xrotation
			JOINT joint_20
			{
				OFFSET -48.871004 19.434999 -424.714005
				CHANNELS 3 Zrotation Yrotation Xrotation
				JOINT joint_21
				{
					OFFSET 195.579996 24.926001 -94.327003
					CHANNELS 3 Zrotation Yrotation Xrotation
					End Site
					{
						OFFSET 0.000000 0.000000 0.000000
					}
				}
			}
		}
	}
}
MOTION
Frames: 10
Frame Time: 0.016667
-2571.435547 967.612061 1102.364990 -10.010931 0.407696 -0.383307 1.767820 0.687970 1.791923 1.786149 -0.030590 -0.379425 1.785485 0.045253 0.350118 0.115367 -5.612342 -0.075761 0.000000 0.000000 0.000000 0.162407 -0.921142 -3.758131 -4.630171 0.148176 -18.930194 8.733496 -74.262527 22.274555 0.000000 0.000000 0.000000 -1.111216 -3.606350 3.333332 7.588999 1.254179 17.769044 -4.266025 -77.435718 -43.613119 0.000000 0.000000 0.000000 11.982659 2.098553 -5.178348 9.977374 37.315126 11.443371 19.791471 -1.197323 7.062261 0.000000 0.000000 0.000000 -4.008327 -21.987655 10.047033 -3.027403 24.361164 -4.431797 -7.336615 -1.940915 -2.966902 0.000000 0.000000 0.000000 
-2560.400879 969.907349 1100.317993 -11.243041 0.329307 -0.053222 2.078831 1.192361 0.816827 2.014677 -0.094195 -0.209279 2.010726 0.121989 0.289359 0.051451 -5.510371 0.089489 0.000000 0.000000 0.000000 -0.253709 -1.422496 -3.472816 -4.492550 -0.278596 -18.886625 9.041807 -74.530315 22.646644 0.000000 0.000000 0.000000 -1.347703 -3.610317 3.340470 7.815656 1.272734 18.475059 -4.015497 -78.331729 -42.704595 0.000000 0.000000 0.000000 12.951645 -1.250392 -7.016446 10.537765 43.190919 13.526498 23.653895 1.709063 8.644038 0.000000 0.000000 0.000000 -3.424859 -21.990614 10.135848 -2.029870 26.877260 -5.422386 -7.187341 -3.596931 -2.660748 0.000000 0.000000 0.000000 
-2548.787598 971.286438 1099.422974 -11.723558 0.168144 0.039435 2.113973 1.619210 0.201826 1.934867 -0.216040 -0.029347 1.919049 0.265769 0.154328 0.078178 -5.089012 -0.001703 0.000000 0.000000 0.000000 -0.296173 -1.713031 -3.166285 -4.276089 -0.527012 -18.447215 9.343685 -74.957459 22.649217 0.000000 0.000000 0.000000 -1.172181 -3.865582 3.318988 8.083430 1.038171 19.273939 -3.816187 -78.399849 -42.565731 0.000000 0.000000 0.000000 13.206444 -4.053733 -8.479854 10.577294 48.156016 15.166780 26.270958 3.940300 9.743818 0.000000 0.000000 0.000000 -3.392154 -21.435708 9.998058 -1.460636 27.926453 -5.613253 -6.884074 -4.765968 -2.366220 0.000000 0.000000 0.000000 
-2537.289551 971.872375 1099.495972 -11.779006 -0.028896 0.021294 2.016693 1.973989 -0.228370 1.695006 -0.349132 0.157116 1.655015 0.438915 -0.017501 0.149423 -4.500354 -0.221233 0.000000 0.000000 0.000000 -0.148665 -1.919060 -2.806980 -4.019071 -0.708590 -17.795839 9.651097 -75.407562 22.492661 0.000000 0.000000 0.000000 -0.785447 -4.256307 3.274645 8.321135 0.652767 20.145561 -3.686024 -77.922308 -42.661277 0.000000 0.000000 0.000000 13.074166 -6.671229 -9.779095 10.382102 52.636112 16.513470 27.892979 5.618221 10.466445 0.000000 0.000000 0.000000 -3.602892 -20.626292 9.740687 -1.090236 28.396960 -5.449923 -6.506867 -5.737855 -2.072174 0.000000 0.000000 0.000000 
-2526.553955 971.718567 1100.364014 -11.716195 -0.226696 -0.024974 1.941489 2.306400 -0.491802 1.476957 -0.457331 0.282783 1.410282 0.569181 -0.129712 0.196347 -4.056459 -0.371373 0.000000 0.000000 0.000000 -0.052822 -2.192321 -2.447533 -3.743057 -0.947002 -17.062999 9.968600 -75.532381 22.328235 0.000000 0.000000 0.000000 -0.466986 -4.538469 3.227704 8.332612 0.317194 20.757067 -3.727215 -77.127448 -42.132421 0.000000 0.000000 0.000000 12.726155 -9.141362 -10.910539 10.117264 56.196067 17.242653 28.041461 6.236537 10.591714 0.000000 0.000000 0.000000 -3.826583 -19.800944 9.543649 -0.877250 28.623685 -5.298728 -6.240552 -6.385852 -1.870935 0.000000 0.000000 0.000000 
-2517.045654 970.789917 1102.089966 -11.656499 -0.421221 -0.119794 1.919083 2.605420 -0.487830 1.345834 -0.498932 0.272056 1.266646 0.615988 -0.124464 0.185072 -3.876100 -0.358108 0.000000 0.000000 0.000000 -0.097910 -2.615122 -2.062170 -3.428805 -1.309367 -16.290638 10.316768 -75.145333 22.179126 0.000000 0.000000 0.000000 -0.313893 -4.571227 3.189841 8.021724 0.142906 20.923903 -3.972547 -76.071936 -40.505687 0.000000 0.000000 0.000000 12.137037 -11.508313 -11.843405 9.719746 58.664928 17.277462 26.133214 5.158593 9.839891 0.000000 0.000000 0.000000 -4.008977 -19.056817 9.552948 -0.822164 28.750695 -5.298969 -6.184318 -6.644775 -1.812346 0.000000 0.000000 0.000000 
-2508.300537 969.122253 1104.610962 -11.491166 -0.591061 -0.268061 1.891196 2.830564 -0.267200 1.251420 -0.489596 0.177441 1.173806 0.621916 -0.056326 0.147844 -3.830386 -0.273091 0.000000 0.000000 0.000000 -0.196999 -3.105431 -1.650966 -3.093394 -1.729818 -15.467122 10.659601 -74.412880 22.009979 0.000000 0.000000 0.000000 -0.228137 -4.511794 3.143493 7.517263 0.001559 20.819163 -4.345328 -74.700119 -38.311947 0.000000 0.000000 0.000000 11.317876 -13.795126 -12.565609 9.152924 60.104113 16.879291 22.976324 2.954476 8.541084 0.000000 0.000000 0.000000 -4.216204 -18.323562 9.668729 -0.912587 28.655566 -5.316822 -6.237920 -6.616508 -1.841433 0.000000 0.000000 0.000000 
-2499.567871 966.878235 1107.562988 -11.144763 -0.689968 -0.379392 1.869789 3.008904 -0.032486 1.186681 -0.485455 0.098629 1.114049 0.628803 0.007226 0.112298 -3.840650 -0.192372 0.000000 0.000000 0.000000 -0.335364 -3.572136 -1.322473 -2.814256 -2.130605 -14.623563 10.916079 -73.519532 21.883348 0.000000 0.000000 0.000000 -0.202470 -4.542654 3.072402 6.961290 -0.247448 20.641998 -4.780935 -73.080316 -36.173438 0.000000 0.000000 0.000000 10.460865 -15.978157 -13.079240 8.562209 60.456271 16.209463 19.997322 0.977404 7.338107 0.000000 0.000000 0.000000 -4.436124 -17.575107 9.726492 -1.097259 28.276010 -5.310659 -6.297958 -6.420460 -1.899412 0.000000 0.000000 0.000000 
-2490.478027 964.135742 1111.079956 -10.564285 -0.682902 -0.419399 1.866167 3.120159 0.181805 1.168594 -0.504559 0.057656 1.101168 0.651927 0.046316 0.088300 -3.908445 -0.142698 0.000000 0.000000 0.000000 -0.560034 -3.978783 -1.142683 -2.605935 -2.487042 -13.731699 11.059534 -72.455186 21.802553 0.000000 0.000000 0.000000 -0.257262 -4.709958 2.919905 6.345835 -0.653695 20.461789 -5.300476 -71.153008 -34.134309 0.000000 0.000000 0.000000 9.548786 -18.018177 -13.402913 7.905325 59.596217 15.223715 17.250022 0.040228 6.330878 0.000000 0.000000 0.000000 -4.672557 -16.766220 9.653082 -1.381697 27.465426 -5.247579 -6.320161 -6.036913 -1.971892 0.000000 0.000000 0.000000 
-2481.401611 960.816650 1115.029053 -9.823550 -0.605865 -0.433888 1.870845 3.181497 0.438221 1.189090 -0.529884 0.016603 1.129710 0.676256 0.082684 0.066154 -4.032085 -0.098955 0.000000 0.000000 0.000000 -0.815736 -4.371824 -1.047165 -2.455039 -2.841743 -12.838721 11.111686 -71.210974 21.755944 0.000000 0.000000 0.000000 -0.368222 -4.973227 2.732999 5.675190 -1.167820 20.206865 -5.866571 -68.962552 -32.147781 0.000000 0.000000 0.000000 8.546398 -19.862003 -13.513409 7.111633 57.585058 13.907642 14.458883 -0.356441 5.362498 0.000000 0.000000 0.000000 -4.916560 -15.933308 9.557326 -1.754319 26.355961 -5.161295 -6.352227 -5.468288 -2.077546 0.000000 0.000000 0.000000 
